<svg width="300" height="300" xmlns="http://www.w3.org/2000/svg">
 <g>
  <title>Layer 1</title>
  <g id="svg_10">
   <circle fill="#ffffff" id="svg_1" r="65.625" cy="150" cx="150"/>
   <path fill="#ffffff" id="svg_2" d="m150,53.75a13.1256,13.1256 0 0 0 13.125,-13.125l0,-21.875a13.125,13.125 0 1 0 -26.25,0l0,21.875a13.1257,13.1257 0 0 0 13.125,13.125z"/>
   <path fill="#ffffff" id="svg_3" d="m63.3802,81.9397a13.1236,13.1236 0 1 0 18.56,-18.56l-15.4668,-15.4659a13.1236,13.1236 0 0 0 -18.5595,18.56l15.4663,15.4659z"/>
   <path fill="#ffffff" id="svg_4" d="m53.75,150a13.1257,13.1257 0 0 0 -13.125,-13.125l-21.875,0a13.125,13.125 0 0 0 0,26.25l21.875,0a13.1256,13.1256 0 0 0 13.125,-13.125z"/>
   <path fill="#ffffff" id="svg_5" d="m63.3802,218.0603l-15.4663,15.4706a13.1236,13.1236 0 1 0 18.56,18.56l15.4663,-15.4706a13.1236,13.1236 0 1 0 -18.5595,-18.56l-0.0005,0z"/>
   <path fill="#ffffff" id="svg_6" d="m150,246.25a13.1258,13.1258 0 0 0 -13.125,13.125l0,21.875a13.125,13.125 0 0 0 26.25,0l0,-21.875a13.1257,13.1257 0 0 0 -13.125,-13.125z"/>
   <path fill="#ffffff" id="svg_7" d="m236.6199,218.0603a13.1236,13.1236 0 1 0 -18.56,18.56l15.4663,15.4706a13.1236,13.1236 0 1 0 18.56,-18.56l-15.4663,-15.4706z"/>
   <path fill="#ffffff" id="svg_8" d="m294.375,150a13.1257,13.1257 0 0 0 -13.125,-13.125l-21.875,0a13.125,13.125 0 0 0 0,26.25l21.875,0a13.1256,13.1256 0 0 0 13.125,-13.125z"/>
   <path fill="#ffffff" id="svg_9" d="m227.3401,85.7849a13.0824,13.0824 0 0 0 9.28,-3.8452l15.4663,-15.4663a13.1236,13.1236 0 1 0 -18.56,-18.56l-15.466,15.4667a13.125,13.125 0 0 0 9.28,22.4048l-0.0003,0z"/>
  </g>
 </g>

</svg>